<?xml version="1.0" standalone="no"?>
<!DOCTYPE svg PUBLIC "-//W3C//DTD SVG 20010904//EN"
 "http://www.w3.org/TR/2001/REC-SVG-20010904/DTD/svg10.dtd">
<svg version="1.0" xmlns="http://www.w3.org/2000/svg"
 width="348.000000pt" height="348.000000pt" viewBox="0 0 348.000000 348.000000"
 preserveAspectRatio="xMidYMid meet">

<g transform="translate(0.000000,348.000000) scale(0.100000,-0.100000)"
fill="#000000" stroke="none">
<path d="M2065 3012 c-69 -33 -125 -112 -125 -176 0 -13 -6 -27 -12 -29 -10
-4 -10 -6 0 -6 6 -1 12 -5 12 -11 0 -5 -7 -7 -16 -3 -15 5 -16 -2 -12 -56 2
-35 10 -66 16 -70 15 -9 -2 -75 -30 -113 -17 -25 -25 -28 -78 -28 -61 0 -90
-7 -90 -21 0 -4 22 -5 49 -2 51 6 121 -3 121 -15 0 -4 -21 -6 -46 -4 -25 3
-66 -1 -90 -8 -36 -10 -44 -17 -44 -36 0 -13 3 -24 8 -24 4 0 7 -13 7 -29 1
-23 -3 -28 -17 -26 -24 5 -24 -46 0 -87 15 -28 16 -31 1 -41 -14 -9 -11 -15
24 -50 47 -47 71 -99 87 -186 6 -36 23 -94 37 -130 66 -174 74 -227 49 -299
-15 -41 -15 -41 15 -67 l31 -25 -42 0 c-68 0 -66 -10 48 -210 28 -50 24 -48
-41 27 -25 29 -48 49 -51 45 -2 -4 -11 -35 -20 -69 -28 -106 -23 -135 41 -265
l58 -116 238 -4 c130 -1 237 0 237 3 0 3 -28 46 -62 95 -72 104 -48 90 32 -20
47 -64 84 -95 98 -82 2 2 -17 39 -41 83 -24 43 -65 119 -90 168 -25 50 -58
109 -72 132 -14 24 -24 43 -21 43 9 0 94 -126 141 -210 27 -47 66 -115 87
-152 26 -45 43 -65 53 -62 10 4 -12 57 -91 215 -57 115 -104 217 -104 226 0 9
10 56 21 105 19 76 25 88 48 96 14 6 87 50 162 99 l136 90 -18 34 c-10 19 -18
44 -19 57 0 18 -4 21 -22 18 -13 -3 -62 -10 -110 -16 -83 -10 -153 -28 -145
-36 2 -3 33 2 68 11 35 8 78 14 94 14 17 -1 -9 -9 -57 -19 -48 -10 -91 -21
-97 -24 -10 -7 -16 7 -26 67 -4 23 -2 37 5 37 6 0 19 14 29 31 17 27 19 48 16
155 -3 112 -5 128 -29 167 -21 38 -73 77 -100 77 -14 0 -156 124 -156 136 0 9
12 14 35 14 31 0 38 6 72 58 73 111 123 282 109 373 -9 59 -36 102 -87 136
-56 37 -163 44 -224 15z m204 -20 c34 -16 91 -92 91 -121 -1 -9 -7 -2 -14 14
-37 86 -136 129 -240 106 -67 -15 -103 -42 -127 -95 -21 -47 -26 -32 -5 18 37
89 187 128 295 78z m70 -313 c-18 -40 -24 -48 -29 -34 -4 11 0 25 11 36 10 10
22 31 25 46 4 15 9 23 11 16 2 -6 -6 -35 -18 -64z m-56 -135 c-15 -20 -36 -48
-45 -62 -9 -14 -25 -30 -35 -36 -13 -7 -11 -1 7 21 14 17 41 53 60 81 19 27
37 45 38 40 2 -5 -9 -25 -25 -44z m-57 -207 c33 -24 65 -51 73 -60 7 -9 22
-17 32 -17 10 0 34 -15 53 -34 41 -41 61 -114 46 -167 -6 -19 -10 -60 -10 -92
0 -84 -12 -101 -63 -93 -35 4 -39 3 -24 -7 54 -35 52 -31 51 -126 -1 -50 3
-88 7 -85 13 8 11 -27 -6 -82 -8 -27 -12 -57 -9 -66 2 -9 -2 -46 -11 -83 -8
-36 -15 -80 -15 -98 l0 -31 -29 34 c-26 31 -27 36 -11 42 9 3 20 21 24 38 9
49 8 60 -9 60 -13 0 -13 3 1 25 24 37 35 105 18 105 -17 0 -17 -4 1 45 23 63
19 143 -9 192 -26 45 -25 53 10 53 29 0 54 35 54 76 0 33 -33 141 -57 187 -8
16 -12 31 -10 34 3 2 21 -28 41 -68 37 -77 58 -78 37 -3 -16 60 -48 104 -85
119 -18 8 -36 20 -39 28 -2 7 -31 33 -63 57 -78 58 -80 60 -67 60 6 0 37 -19
69 -43z m-4 -230 c20 -52 24 -128 8 -157 -18 -33 -167 -58 -245 -41 l-40 9 50
1 c67 2 175 28 197 48 27 24 24 113 -7 188 -14 33 -25 62 -25 65 0 13 45 -70
62 -113z m52 -452 c-13 -29 -14 -41 -5 -61 6 -14 10 -48 10 -77 l-2 -52 -7 58
c-4 34 -16 71 -28 87 -19 25 -20 30 -6 41 23 19 44 64 46 101 1 23 3 19 5 -14
3 -31 -2 -60 -13 -83z m246 83 c-14 -6 -46 -21 -72 -33 -45 -20 -48 -21 -48
-4 0 17 14 23 95 42 37 9 50 6 25 -5z"/>
<path d="M1323 2849 c-107 -34 -133 -90 -98 -214 l14 -50 0 44 c1 57 6 50 15
-17 5 -36 3 -52 -3 -47 -32 19 -16 -97 23 -173 9 -17 16 -40 16 -52 0 -11 4
-20 8 -20 5 0 9 -7 9 -15 0 -8 -4 -15 -8 -15 -4 0 -5 -9 -2 -19 5 -21 -60
-101 -73 -89 -4 4 -1 14 6 23 10 12 10 15 -4 15 -9 0 -21 -10 -26 -22 -8 -21
-9 -21 -10 -3 -1 19 -1 19 -14 2 -9 -12 -15 -14 -18 -6 -6 19 -54 -17 -72 -56
-23 -49 -20 -62 9 -35 14 13 27 21 30 18 3 -3 -26 -34 -65 -69 -80 -73 -115
-120 -125 -166 -9 -44 18 -97 59 -117 24 -11 36 -26 45 -57 7 -23 23 -52 37
-66 15 -15 24 -35 24 -56 0 -34 45 -137 60 -137 12 0 21 -30 13 -43 -4 -7 -9
-3 -13 12 -3 14 -11 26 -17 28 -8 3 -7 -13 2 -54 8 -32 17 -71 20 -88 6 -29 7
-29 24 20 15 45 65 135 75 135 2 0 -5 -24 -16 -52 -15 -41 -19 -67 -15 -113 5
-59 5 -59 -8 -25 l-13 35 0 -45 c0 -25 3 -56 7 -70 l7 -25 17 30 c16 29 16 27
10 -61 -6 -90 -5 -91 18 -97 13 -3 33 -12 43 -20 18 -13 15 -14 -31 -10 -36 4
-51 2 -55 -8 -3 -8 -15 -38 -27 -67 l-21 -52 230 0 230 0 27 42 c24 35 29 54
31 123 3 57 -1 92 -12 118 l-15 38 43 57 c91 120 167 255 187 335 12 51 2 97
-52 240 -16 42 -36 111 -44 151 -26 141 -77 201 -198 237 -95 29 -117 49 -117
110 0 32 6 54 20 70 l19 24 1 -56 c0 -48 4 -60 28 -84 32 -33 62 -45 106 -45
l34 0 -14 38 c-7 20 -13 64 -14 96 0 50 2 57 13 43 10 -15 12 -10 14 32 1 30
12 70 27 100 65 127 29 248 -83 282 -32 9 -44 10 -53 1 -9 -9 -3 -12 25 -12
46 0 83 -23 104 -64 l16 -31 -37 33 c-44 39 -82 44 -71 10 4 -13 9 -63 10
-113 l3 -90 -8 79 c-15 126 -53 185 -139 214 -48 17 -96 14 -168 -9z m187 -19
c19 -10 44 -28 55 -40 18 -20 16 -20 -19 4 -41 28 -96 46 -136 46 l-25 -1 25
-14 c24 -14 23 -14 -20 -9 -57 7 -128 -27 -149 -71 -8 -16 -16 -25 -18 -18 -5
14 20 65 40 81 8 7 41 21 73 32 66 22 117 19 174 -10z m-263 -317 c-3 -10 -5
-4 -5 12 0 17 2 24 5 18 2 -7 2 -21 0 -30z m71 -147 c14 -16 14 -18 2 -15 -16
5 -54 76 -64 119 -3 14 6 0 20 -30 14 -30 33 -64 42 -74z m272 -151 c56 -11
117 -44 136 -73 l17 -27 -29 27 c-57 53 -111 61 -138 21 -16 -25 -16 -17 1 25
9 21 -15 13 -31 -10 -9 -12 -16 -18 -16 -12 0 5 6 16 12 22 10 10 6 18 -17 38
l-30 25 30 -14 c17 -8 46 -18 65 -22z m-270 -109 c0 -2 -37 -35 -82 -72 -99
-81 -103 -86 -122 -144 l-15 -45 3 53 c4 64 20 83 131 158 81 55 85 57 85 50z
m304 -289 c16 -45 46 -117 67 -159 l38 -78 -35 -62 c-20 -35 -46 -90 -59 -123
-28 -75 -76 -177 -81 -172 -2 2 3 22 12 44 15 39 15 43 -2 67 -19 27 -23 27
-94 11 -21 -5 -19 -2 11 17 l36 23 -29 39 c-23 33 -28 49 -28 100 0 74 16 128
75 257 25 54 45 103 45 109 0 31 18 0 44 -73z m-431 -156 c5 -9 -12 5 -37 31
-25 26 -46 52 -46 59 0 13 68 -61 83 -90z"/>
<path d="M1275 2251 c-6 -6 -32 -12 -60 -14 l-50 -3 51 -2 c35 -1 55 3 64 13
14 16 10 21 -5 6z"/>
<path d="M1097 2197 c-31 -29 -45 -59 -59 -128 -2 -9 -28 -36 -58 -60 -73 -59
-99 -119 -82 -184 10 -39 9 -52 -8 -97 -33 -86 -32 -85 -87 -60 -26 12 -83 35
-125 51 l-76 29 -39 -37 -39 -36 83 -60 c46 -33 104 -74 129 -92 25 -18 70
-40 100 -50 50 -15 57 -16 82 -1 15 8 47 45 72 82 l45 66 17 -33 c25 -46 58
-154 58 -189 0 -16 21 -95 46 -175 25 -79 44 -152 41 -161 -3 -9 -17 -50 -32
-90 -14 -40 -24 -79 -22 -85 2 -7 12 13 22 43 10 30 26 72 37 93 l19 37 -45
143 c-25 78 -50 169 -55 203 -5 33 -24 96 -41 140 -18 43 -42 105 -54 138 -13
32 -31 63 -42 69 -38 20 -64 51 -70 83 -11 60 4 93 77 164 54 53 69 74 69 96
0 39 33 90 72 114 21 12 27 20 16 20 -9 0 -32 -15 -51 -33z m-249 -561 c16 -8
35 -22 43 -32 12 -14 8 -14 -26 3 -22 12 -86 40 -143 63 -56 24 -105 46 -107
50 -5 9 191 -62 233 -84z"/>
<path d="M2835 2061 c-77 -36 -135 -124 -135 -204 0 -82 60 -174 134 -208 76
-34 176 -20 241 33 128 106 96 318 -57 382 -50 21 -134 20 -183 -3z m162 -32
c68 -25 116 -97 116 -174 0 -170 -208 -250 -320 -122 -81 92 -63 220 40 282
46 27 114 33 164 14z"/>
<path d="M2840 1998 c-58 -40 -75 -72 -75 -142 0 -54 4 -68 29 -100 33 -44 79
-66 137 -66 161 0 227 206 96 301 -53 38 -136 41 -187 7z m146 -27 c107 -48
92 -204 -23 -242 -48 -15 -117 11 -144 55 -40 65 -12 162 54 191 43 19 64 18
113 -4z"/>
<path d="M2860 1943 c-60 -54 -55 -137 9 -180 39 -27 71 -29 111 -8 41 21 60
53 60 100 0 97 -111 150 -180 88z"/>
<path d="M350 2024 c-98 -43 -137 -152 -89 -252 56 -114 213 -133 298 -37 26
30 51 89 51 120 0 32 -25 90 -52 121 -54 61 -135 80 -208 48z m137 -34 c55
-25 83 -70 83 -135 0 -67 -28 -111 -86 -136 -146 -65 -279 110 -177 232 50 59
109 72 180 39z"/>
<path d="M349 1967 c-42 -28 -59 -60 -59 -112 0 -104 106 -167 199 -117 39 21
71 73 71 115 0 107 -123 174 -211 114z m124 -18 c31 -14 57 -59 57 -99 0 -23
-10 -42 -35 -67 -33 -33 -39 -35 -81 -30 -53 6 -80 27 -94 75 -24 89 66 161
153 121z"/>
<path d="M373 1930 c-63 -38 -50 -136 20 -159 64 -21 117 20 117 90 0 29 -7
43 -31 63 -37 31 -63 33 -106 6z"/>
<path d="M530 700 l0 -130 25 0 c24 0 25 3 25 60 l0 60 45 0 c38 0 45 3 45 20
0 17 -7 20 -45 20 -41 0 -45 2 -45 25 0 23 4 25 45 25 41 0 45 2 45 25 0 24
-2 25 -70 25 l-70 0 0 -130z"/>
<path d="M714 817 c-2 -7 -3 -64 -2 -127 l3 -115 25 0 25 0 3 128 3 127 -26 0
c-14 0 -28 -6 -31 -13z"/>
<path d="M800 805 c0 -20 5 -25 25 -25 l25 0 0 -106 0 -105 28 3 27 3 3 103
c3 101 3 102 27 102 20 0 25 5 25 25 0 25 -1 25 -80 25 -79 0 -80 0 -80 -25z"/>
<path d="M1000 700 l0 -130 25 0 c24 0 24 2 27 86 l3 85 60 -85 c50 -71 64
-85 88 -86 l27 0 0 131 0 130 -27 -3 c-28 -3 -28 -3 -28 -81 0 -42 -3 -77 -6
-77 -3 0 -32 36 -63 80 -45 62 -63 80 -82 80 l-24 0 0 -130z"/>
<path d="M1294 817 c-2 -7 -3 -65 -2 -128 l3 -114 78 -3 c77 -3 77 -3 77 23 0
23 -3 25 -50 25 l-50 0 0 35 0 35 50 0 c43 0 50 3 50 20 0 17 -7 20 -50 20
-47 0 -50 2 -50 25 0 23 3 25 50 25 47 0 50 2 50 25 0 24 -2 25 -75 25 -53 0
-77 -4 -81 -13z"/>
<path d="M1510 810 c-38 -38 -26 -63 69 -143 28 -22 31 -30 21 -42 -16 -19
-39 -19 -61 1 -14 13 -22 13 -39 4 l-22 -12 23 -24 c40 -42 130 -29 149 22 14
35 -4 65 -61 109 -27 20 -49 41 -49 46 0 17 31 22 55 9 20 -11 27 -11 41 1 15
12 14 15 -6 31 -31 25 -94 24 -120 -2z"/>
<path d="M1720 810 c-32 -32 -25 -59 27 -107 26 -23 51 -43 55 -43 15 0 8 -41
-7 -46 -16 -6 -29 -2 -57 18 -13 9 -20 9 -32 -2 -15 -12 -15 -15 5 -37 17 -17
33 -23 64 -23 55 0 85 22 85 63 -1 37 -10 51 -67 95 -24 19 -43 38 -43 43 0
16 32 23 52 10 14 -9 24 -9 40 0 l22 12 -23 18 c-32 26 -95 25 -121 -1z"/>
<path d="M2084 811 c-46 -28 -64 -59 -64 -112 0 -80 57 -129 152 -129 36 0 64
7 87 21 32 19 33 21 15 40 -16 18 -18 18 -37 2 -13 -12 -35 -18 -69 -18 -42 0
-53 4 -74 28 -13 16 -24 41 -24 57 0 16 11 41 24 57 21 24 32 28 74 28 34 0
56 -6 69 -18 19 -16 21 -16 37 2 18 19 17 21 -15 40 -45 28 -132 28 -175 2z"/>
<path d="M2342 703 l3 -128 65 0 c58 0 65 2 65 20 0 16 -8 21 -37 23 l-38 3 0
105 0 104 -30 0 -31 0 3 -127z"/>
<path d="M2520 725 c0 -99 2 -107 25 -130 34 -35 106 -35 140 0 23 23 25 31
25 130 l0 105 -25 0 c-25 0 -25 -1 -25 -91 0 -100 -10 -129 -43 -129 -40 0
-47 18 -47 122 0 98 0 98 -25 98 l-25 0 0 -105z"/>
<path d="M2780 699 l0 -131 64 4 c45 3 71 10 85 22 27 24 28 77 2 100 -16 15
-17 22 -8 47 20 52 -22 89 -100 89 l-43 0 0 -131z m95 56 c0 -13 -8 -21 -22
-23 -19 -3 -23 1 -23 23 0 22 4 26 23 23 14 -2 22 -10 22 -23z m18 -85 c20
-18 2 -45 -31 -48 -31 -3 -32 -2 -32 33 0 34 1 35 28 29 15 -4 31 -10 35 -14z"/>
<path d="M1430 379 c0 -31 4 -48 10 -44 6 3 10 26 10 51 0 24 -4 44 -10 44 -5
0 -10 -23 -10 -51z"/>
<path d="M1708 419 c-3 -8 -2 -32 1 -54 l7 -40 5 37 c5 41 -4 81 -13 57z"/>
<path d="M2019 413 c-4 -63 13 -105 21 -53 7 40 2 70 -11 70 -5 0 -9 -8 -10
-17z"/>
<path d="M2182 380 c0 -39 2 -47 7 -26 9 41 31 46 31 7 0 -17 5 -31 11 -31 6
0 9 14 7 33 -2 24 -8 33 -25 35 -12 2 -24 11 -26 20 -3 9 -5 -8 -5 -38z"/>
<path d="M910 386 c0 -8 8 -17 18 -21 16 -7 15 -8 -3 -15 -19 -7 -19 -8 -1
-15 25 -11 40 15 20 36 -12 14 -13 18 -2 22 7 3 3 6 -9 6 -13 1 -23 -5 -23
-13z"/>
<path d="M1013 384 c-9 -24 10 -49 41 -52 24 -3 26 0 26 32 0 33 -2 36 -30 36
-19 0 -33 -6 -37 -16z m47 -14 c0 -11 -6 -20 -13 -20 -19 0 -27 10 -20 26 8
21 33 17 33 -6z"/>
<path d="M1141 363 l1 -38 9 33 c11 38 29 43 29 8 0 -35 18 -42 22 -9 4 39 28
42 28 4 0 -17 5 -31 11 -31 6 0 9 14 7 33 -3 31 -4 32 -55 35 l-53 3 1 -38z"/>
<path d="M1303 355 c0 -25 3 -45 8 -45 5 0 9 6 9 14 0 9 7 12 19 9 13 -3 23 2
30 15 17 31 3 52 -33 52 -30 0 -31 -2 -33 -45z m55 12 c2 -12 -3 -17 -17 -17
-12 0 -21 6 -21 13 0 31 32 34 38 4z"/>
<path d="M1503 384 c-8 -22 9 -48 36 -52 28 -4 27 15 -1 21 -19 4 -18 5 5 6
21 1 28 5 25 19 -4 24 -56 29 -65 6z m44 0 c-3 -3 -12 -4 -19 -1 -8 3 -5 6 6
6 11 1 17 -2 13 -5z"/>
<path d="M1783 384 c-8 -22 9 -48 36 -52 28 -4 27 15 -1 21 -19 4 -18 5 5 6
21 1 28 5 25 19 -4 24 -56 29 -65 6z m44 0 c-3 -3 -12 -4 -19 -1 -8 3 -5 6 6
6 11 1 17 -2 13 -5z"/>
<path d="M1917 379 c3 -11 0 -26 -7 -34 -15 -18 1 -20 19 -2 11 10 14 10 18 0
3 -7 9 -13 14 -13 6 0 6 8 -1 19 -5 11 -7 26 -4 34 4 10 -2 15 -19 15 -19 0
-23 -5 -20 -19z"/>
<path d="M2296 384 c-8 -22 11 -54 34 -54 31 0 34 20 3 21 l-28 1 29 7 c17 3
29 9 28 14 -1 4 -2 12 -2 17 0 17 -57 12 -64 -6z m47 -1 c-7 -2 -19 -2 -25 0
-7 3 -2 5 12 5 14 0 19 -2 13 -5z"/>
<path d="M2421 363 c1 -28 3 -31 6 -13 3 14 10 31 15 38 8 9 6 12 -6 12 -12 0
-16 -9 -15 -37z"/>
<path d="M2503 384 c-8 -22 9 -48 36 -52 28 -4 27 15 -1 21 -19 4 -18 5 5 6
21 1 28 5 25 19 -4 24 -56 29 -65 6z m44 0 c-3 -3 -12 -4 -19 -1 -8 3 -5 6 6
6 11 1 17 -2 13 -5z"/>
</g>
</svg>
