<svg width="466" height="512" viewBox="0 0 466 512" fill="none" xmlns="http://www.w3.org/2000/svg">
<path d="M233.516 0.700018C233.116 1.00002 232.816 6.10002 232.816 12V22.7L220.316 23.4C134.716 28.2 58.8164 79.3 22.1164 156.8C-8.88359 222.3 -7.18359 300 26.5164 364C41.6164 392.7 63.8164 419.6 88.6164 439.1L96.0164 444.9L105.916 431.3C111.316 423.8 115.816 417.4 115.816 417C115.816 416.7 112.816 414 109.116 411C75.4164 384 51.4164 346.5 40.7164 304.1C15.9164 206.6 69.7164 105.1 164.716 70C183.716 63 209.316 58 225.916 58H232.816V68.4C232.816 82.3 233.316 82.7 243.516 75.7C285.216 47.3 292.916 41.7 292.616 40.2C292.316 38.5 237.316 1.77845e-05 235.316 1.77845e-05C234.616 1.77845e-05 233.816 0.300018 233.516 0.700018Z" fill="black"/>
<path d="M359.816 80.7001C354.816 87.6001 350.416 93.9001 350.116 94.5001C349.916 95.2001 352.816 98.1001 356.516 101C376.816 116.9 397.616 142.7 410.116 167.6C440.316 227.9 437.416 299.5 402.516 358C380.116 395.6 342.416 426.9 302.016 441.6C281.916 448.9 256.416 454 239.716 454H232.816V443.6C232.816 429.6 232.416 429.3 221.716 436.6C185.816 461 172.816 470.3 172.816 471.4C172.816 473.3 173.716 474 202.316 493.6C216.616 503.4 229.216 511.4 230.316 511.4C232.216 511.5 232.316 510.8 232.616 500.4L232.916 489.3L244.616 488.6C329.916 483.8 404.516 434.6 441.816 358.6C470.016 301 473.416 235.1 451.116 175C442.916 152.9 428.516 127.6 413.716 109.3C405.216 98.8001 388.116 81.8001 378.416 74.2001C374.116 70.8001 370.216 68.0001 369.816 68.0001C369.416 68.0001 364.916 73.7001 359.816 80.7001Z" fill="black"/>
<path d="M215.116 111.5C210.716 113.4 209.416 116.8 206.616 132.9L204.316 146.2L197.316 148.4C193.516 149.6 186.716 152.5 182.316 154.7L174.316 158.7L164.816 151.8C159.616 148 153.616 144 151.416 142.9C144.816 139.4 142.716 140.5 129.016 154.3C113.716 169.8 113.816 169.5 123.516 183.7C127.116 189.1 131.116 194.8 132.416 196.4L134.616 199.4L130.816 206.9C128.816 211.1 126.016 217.7 124.716 221.7L122.416 228.9L117.916 229.6C99.9164 232.1 92.4164 234 89.9164 236.5C87.3164 239 87.3164 239.1 87.3164 257V275L89.9164 277.6C92.2164 279.8 94.5164 280.5 107.616 282.8L122.716 285.3L125.316 292.9C126.816 297.1 129.616 303.7 131.516 307.6L135.016 314.7L126.416 327C114.316 344.3 114.216 343.6 130.116 359.6C142.116 371.8 142.416 372 146.816 372C150.816 372 152.616 371.1 163.316 363.5C169.916 358.8 175.616 355 176.116 355C176.516 355 179.716 356.4 183.116 358.2C186.516 359.9 192.916 362.5 197.316 364L205.316 366.8L207.516 380.1C211.216 402.4 210.716 402 234.116 402C256.516 402 255.916 402.5 259.816 379.4C260.916 372.7 261.816 367 261.816 366.8C261.816 366.5 265.016 365.2 268.916 364C272.716 362.7 279.216 360.1 283.216 358L290.616 354.3L302.416 362.7C308.916 367.2 315.016 371.3 316.116 371.6C321.016 373.1 324.216 371.1 336.316 359C352.016 343.3 351.916 343.7 339.616 326.2L331.016 313.9L334.816 306.2C336.916 302 339.616 295.3 340.816 291.4L343.116 284.3L358.216 281.7C372.316 279.3 373.516 278.9 376.016 276.1L378.816 273V256V239L376.116 236C373.516 233.1 372.316 232.7 358.216 230.2L343.016 227.5L340.816 220.5C339.616 216.7 336.816 210 334.716 205.8L330.816 198.1L339.216 186.3C347.916 174.1 349.516 170.8 348.316 166.8C347.216 163.2 326.016 142.2 322.216 141C317.816 139.5 314.616 141 301.516 150.4L290.916 158.1L284.116 154.7C280.416 152.8 273.716 150 269.316 148.6L261.316 145.9L258.916 132.2C257.716 124.7 256.116 117.4 255.516 116C253.216 111.2 248.816 110 232.816 110C222.616 110.1 217.316 110.5 215.116 111.5ZM253.916 195.7C278.816 204.3 295.216 225.9 296.516 252C297.516 271.2 291.816 286 278.316 299.6C260.616 317.4 237.116 323.1 213.616 315.3C194.316 308.9 180.016 294.4 173.216 274.5C170.916 267.7 170.516 264.8 170.516 255.5C170.516 246.3 171.016 243.1 173.216 236.4C178.516 220.1 190.216 206.4 205.316 198.9C216.016 193.6 223.916 191.9 235.916 192.4C243.216 192.7 247.516 193.5 253.916 195.7Z" fill="black"/>
<path d="M223.616 219.5C191.916 228.2 186.816 272.4 215.716 287.8C241.016 301.3 270.716 283.8 270.816 255.4C270.816 230.8 247.416 212.9 223.616 219.5Z" fill="black"/>
</svg>
