<svg width="258" height="75" viewBox="0 0 258 75" fill="none" xmlns="http://www.w3.org/2000/svg">
<path d="M61.3592 0.615448C59.0387 1.74792 57.1554 4.45898 57.1554 6.65528C57.1554 7.1014 56.9536 7.58184 56.7518 7.65047C56.4155 7.78774 56.4155 7.85638 56.7518 7.85638C56.9536 7.89069 57.1554 8.02796 57.1554 8.23387C57.1554 8.40546 56.9199 8.47409 56.6173 8.33682C56.1128 8.16524 56.0792 8.40546 56.2137 10.2586C56.281 11.4597 56.55 12.5235 56.7518 12.6608C57.2563 12.9696 56.6845 15.2346 55.7429 16.5386C55.1711 17.3966 54.9021 17.4995 53.1197 17.4995C51.0682 17.4995 50.0929 17.7397 50.0929 18.2202C50.0929 18.3574 50.8328 18.3918 51.7408 18.2888C53.456 18.0829 55.8101 18.3918 55.8101 18.8036C55.8101 18.9408 55.1039 19.0095 54.2631 18.9408C53.4223 18.8379 52.0435 18.9751 51.2363 19.2154C50.0256 19.5585 49.7566 19.7988 49.7566 20.4508C49.7566 20.8969 49.8575 21.2744 50.0256 21.2744C50.1601 21.2744 50.261 21.7205 50.261 22.2696C50.2947 23.0589 50.1601 23.2305 49.6893 23.1618C48.8822 22.9903 48.8822 24.7404 49.6893 26.1474C50.1938 27.1083 50.2274 27.2113 49.7229 27.5544C49.2521 27.8633 49.353 28.0692 50.5301 29.2703C52.1107 30.8832 52.9179 32.6677 53.456 35.6533C53.6577 36.8887 54.2295 38.8791 54.7003 40.1145C56.9199 46.0857 57.189 47.9045 56.3482 50.3754C55.8438 51.7824 55.8438 51.7824 56.8527 52.6746L57.8952 53.5325H56.4827C54.1958 53.5325 54.2631 53.8757 58.097 60.7392C59.0387 62.455 58.9042 62.3864 56.7182 59.8126C55.8774 58.8174 55.1039 58.131 55.003 58.2683C54.9357 58.4056 54.633 59.4694 54.3304 60.6362C53.3887 64.2738 53.5569 65.269 55.7092 69.7303L57.6598 73.711L65.664 73.8483C70.036 73.8826 73.6345 73.8483 73.6345 73.7454C73.6345 73.6424 72.6928 72.1668 71.5494 70.4852C69.1279 66.9162 69.9351 67.3967 72.6255 71.1716C74.2062 73.3679 75.4505 74.4317 75.9214 73.9856C75.9886 73.917 75.3496 72.6472 74.5425 71.1373C73.7354 69.6616 72.3565 67.0535 71.5157 65.372C70.675 63.6561 69.5651 61.6314 69.0943 60.8421C68.6235 60.0185 68.2872 59.3665 68.3881 59.3665C68.6907 59.3665 71.5494 63.6904 73.13 66.5731C74.038 68.186 75.3496 70.5195 76.0559 71.7893C76.9303 73.3336 77.502 74.0199 77.8383 73.917C78.1746 73.7797 77.4348 71.9609 74.7779 66.5388C72.861 62.5923 71.2803 59.0919 71.2803 58.7831C71.2803 58.4742 71.6166 56.8613 71.9866 55.1798C72.6255 52.5717 72.8273 52.1599 73.6008 51.8853C74.0717 51.6794 76.5267 50.1695 79.049 48.4879L83.6228 45.3994L83.0175 44.2326C82.6812 43.5806 82.4121 42.7226 82.3785 42.2765C82.3785 41.6588 82.244 41.5558 81.6386 41.6588C81.2014 41.7618 79.5535 42.002 77.9392 42.2079C75.1479 42.551 72.7937 43.1688 73.0627 43.4433C73.13 43.5462 74.1726 43.3747 75.3496 43.0658C76.5267 42.7913 77.9729 42.5854 78.5109 42.5854C79.0827 42.6197 78.2083 42.8942 76.594 43.2374C74.9797 43.5806 73.5336 43.9581 73.3318 44.061C72.9955 44.3012 72.7937 43.8208 72.4574 41.7618C72.3229 40.9725 72.3901 40.492 72.6255 40.492C72.8273 40.492 73.2645 40.0116 73.6008 39.4282C74.1726 38.5016 74.2398 37.781 74.1389 34.109C74.038 30.2655 73.9708 29.7164 73.1636 28.3781C72.4574 27.074 70.7086 25.7356 69.8006 25.7356C69.3297 25.7356 64.5541 21.4803 64.5541 21.0685C64.5541 20.7596 64.9577 20.5881 65.7312 20.5881C66.7738 20.5881 67.0092 20.3821 68.1526 18.5977C70.6077 14.7884 72.2892 8.92021 71.8184 5.79735C71.5157 3.77264 70.6077 2.29699 68.8925 1.13021C67.0092 -0.139526 63.4107 -0.379745 61.3592 0.615448ZM68.2199 1.3018C69.3634 1.85087 71.2803 4.45898 71.2803 5.45418C71.2467 5.76303 71.0449 5.52281 70.8095 4.97374C69.5651 2.02246 66.2357 0.546814 62.7381 1.33611C60.4848 1.85087 59.2741 2.77744 58.467 4.59624C57.7607 6.20915 57.5926 5.6944 58.2988 3.97854C59.5431 0.924309 64.5878 -0.414062 68.2199 1.3018ZM70.5741 12.0431C69.9687 13.4158 69.7669 13.6903 69.5988 13.2099C69.4642 12.8324 69.5988 12.3519 69.9687 11.9744C70.305 11.6313 70.7086 10.9106 70.8095 10.3959C70.944 9.8811 71.1122 9.60655 71.1794 9.84678C71.2467 10.0527 70.9776 11.0479 70.5741 12.0431ZM68.6907 16.6759C68.1863 17.3622 67.48 18.3231 67.1773 18.8036C66.8747 19.284 66.3366 19.8331 66.0003 20.039C65.5631 20.2792 65.6303 20.0733 66.2357 19.3183C66.7065 18.7349 67.6146 17.4995 68.2535 16.5386C68.8925 15.6121 69.4979 14.9944 69.5315 15.1659C69.5988 15.3375 69.2288 16.0239 68.6907 16.6759ZM66.7738 23.7796C67.8836 24.6032 68.9598 25.5297 69.2288 25.8386C69.4642 26.1474 69.9687 26.422 70.305 26.422C70.6413 26.422 71.4485 26.9367 72.0875 27.5888C73.4663 28.9958 74.1389 31.5009 73.6345 33.3197C73.4327 33.9718 73.2982 35.3788 73.2982 36.4769C73.2982 39.3596 72.8946 39.9429 71.1794 39.6684C70.0023 39.5311 69.8678 39.5655 70.3723 39.9086C72.1883 41.1097 72.1211 40.9725 72.0875 44.2326C72.0538 45.9484 72.1883 47.2525 72.3229 47.1495C72.7601 46.875 72.6928 48.0761 72.1211 49.9636C71.852 50.8901 71.7175 51.9196 71.8184 52.2285C71.8857 52.5373 71.7511 53.8071 71.4485 55.0768C71.1794 56.3122 70.944 57.8222 70.944 58.4399V59.5037L69.9687 58.3369C69.0943 57.2731 69.0607 57.1015 69.5988 56.8956C69.9014 56.7927 70.2714 56.175 70.4059 55.5916C70.7086 53.91 70.675 53.5325 70.1032 53.5325C69.666 53.5325 69.666 53.4296 70.1369 52.6746C70.944 51.4049 71.3139 49.0713 70.7422 49.0713C70.1705 49.0713 70.1705 49.2086 70.7759 47.527C71.5494 45.3651 71.4148 42.6197 70.4732 40.9381C69.5988 39.3939 69.6324 39.1193 70.8095 39.1193C71.7848 39.1193 72.6255 37.9182 72.6255 36.5112C72.6255 35.3788 71.5157 31.6725 70.7086 30.0939C70.4395 29.5448 70.305 29.0301 70.3723 28.9271C70.4732 28.8585 71.0785 29.888 71.7511 31.2607C72.9955 33.9031 73.7017 33.9374 72.9955 31.3636C72.4574 29.3046 71.3812 27.7947 70.1369 27.2799C69.5315 27.0054 68.9262 26.5936 68.8253 26.319C68.758 26.0788 67.7827 25.1866 66.7065 24.3629C64.0833 22.3725 64.0161 22.3039 64.4533 22.3039C64.655 22.3039 65.6976 22.9559 66.7738 23.7796ZM66.6393 31.6725C67.3119 33.457 67.4464 36.0651 66.9083 37.0603C66.3029 38.1928 61.292 39.0507 58.6687 38.4673L57.3235 38.1585L59.0051 38.1241C61.2583 38.0555 64.8905 37.1632 65.6303 36.4769C66.5384 35.6533 66.4375 32.5991 65.3949 30.0253C64.9241 28.8928 64.5541 27.8976 64.5541 27.7947C64.5541 27.3485 66.0675 30.1969 66.6393 31.6725ZM68.3881 47.1839C67.9509 48.1791 67.9172 48.5909 68.2199 49.2772C68.4217 49.7577 68.5562 50.9244 68.5562 51.9196L68.489 53.7041L68.2535 51.7137C68.119 50.5469 67.7154 49.2772 67.3119 48.7281C66.6729 47.8702 66.6393 47.6986 67.1101 47.3211C67.8836 46.6691 68.5898 45.1248 68.6571 43.8551C68.6907 43.0658 68.758 43.2031 68.8253 44.3355C68.9262 45.3994 68.758 46.3946 68.3881 47.1839ZM76.6612 44.3355C76.1904 44.5414 75.1142 45.0562 74.2398 45.468C72.7264 46.1544 72.6255 46.1887 72.6255 45.6053C72.6255 45.0219 73.0964 44.816 75.8205 44.164C77.0648 43.8551 77.502 43.9581 76.6612 44.3355Z" fill="white"/>
<path d="M36.4052 6.20913C32.8067 7.37591 31.9322 9.29768 33.1093 13.553L33.5802 15.2689V13.7589C33.6138 11.8028 33.7819 12.043 34.0846 14.3423C34.2528 15.5777 34.1855 16.1268 33.9837 15.9552C32.9075 15.3032 33.4456 19.284 34.7572 21.8921C35.0599 22.4755 35.2953 23.2648 35.2953 23.6766C35.2953 24.0541 35.4299 24.3629 35.5644 24.3629C35.7325 24.3629 35.8671 24.6031 35.8671 24.8777C35.8671 25.1522 35.7325 25.3924 35.598 25.3924C35.4635 25.3924 35.4299 25.7013 35.5307 26.0445C35.6989 26.7651 33.5129 29.5105 33.0757 29.0987C32.9412 28.9614 33.0421 28.6182 33.2775 28.3094C33.6138 27.8976 33.6138 27.7946 33.143 27.7946C32.8403 27.7946 32.4367 28.1378 32.2686 28.5496C31.9995 29.2703 31.9659 29.2703 31.9322 28.6526C31.8986 28.0005 31.8986 28.0005 31.4614 28.5839C31.1587 28.9957 30.957 29.0644 30.8561 28.7898C30.6543 28.1378 29.04 29.3732 28.4346 30.7116C27.6611 32.3931 27.762 32.8393 28.7373 31.9127C29.2082 31.4666 29.6454 31.192 29.7462 31.295C29.8471 31.3979 28.8718 32.4618 27.5602 33.6629C24.8698 36.168 23.6927 37.7809 23.3564 39.3595C23.0537 40.8695 23.9617 42.6883 25.3406 43.3746C26.1477 43.7521 26.5513 44.2669 26.854 45.3307C27.0894 46.12 27.6275 47.1152 28.0983 47.5957C28.6028 48.1104 28.9055 48.7968 28.9055 49.5174C28.9055 50.6842 30.4189 54.2189 30.9233 54.2189C31.3269 54.2189 31.6296 55.2484 31.3605 55.6945C31.226 55.9347 31.0578 55.7975 30.9233 55.2827C30.8224 54.8023 30.5534 54.3905 30.3516 54.3218C30.0826 54.2189 30.1162 54.7679 30.4189 56.1749C30.6879 57.2731 30.9906 58.6115 31.0915 59.1949C31.2933 60.1901 31.3269 60.1901 31.8986 58.5085C32.4031 56.9642 34.0846 53.8757 34.4209 53.8757C34.4882 53.8757 34.2528 54.6993 33.8828 55.6602C33.3784 57.0672 33.2439 57.9594 33.3784 59.538C33.5465 61.5627 33.5465 61.5627 33.1093 60.396L32.6721 59.1949V60.7391C32.6721 61.5971 32.773 62.6609 32.9075 63.1413L33.143 63.9993L33.7147 62.9698C34.2528 61.9746 34.2528 62.0432 34.051 65.0631C33.8492 68.1516 33.8828 68.186 34.6563 68.3919C35.0935 68.4948 35.7662 68.8037 36.1025 69.0782C36.7078 69.5243 36.6069 69.5586 35.0599 69.4214C33.8492 69.2841 33.3447 69.3527 33.2102 69.6959C33.1093 69.9705 32.7058 71 32.3022 71.9952L31.5959 73.7797H39.331H47.0661L47.9742 72.3383C48.7813 71.1372 48.9495 70.4852 49.0167 68.1173C49.1176 66.1612 48.9831 64.9601 48.6131 64.0679L48.1087 62.7638L49.5548 60.8078C52.6152 56.6897 55.1712 52.0569 55.8438 49.3115C56.2474 47.5613 55.911 45.9827 54.095 41.0754C53.5569 39.6341 52.8843 37.2662 52.6152 35.8935C51.7408 31.0548 50.0256 28.9957 45.9563 27.7603C42.7614 26.7651 42.0215 26.0788 42.0215 23.9854C42.0215 22.8873 42.2233 22.1323 42.6941 21.5832L43.3331 20.7596L43.3667 22.6814C43.3667 24.3286 43.5013 24.7404 44.3084 25.564C45.3846 26.6965 46.3935 27.1083 47.8733 27.1083H49.0167L48.5459 25.8042C48.3105 25.1179 48.1087 23.6079 48.0751 22.5098C48.0751 20.7939 48.1423 20.5537 48.5123 21.0341C48.8486 21.5489 48.9158 21.3773 48.9831 19.936C49.0167 18.9065 49.3867 17.5338 49.8911 16.5043C52.0771 12.146 50.8664 7.99362 47.0998 6.82684C46.0236 6.51798 45.62 6.48367 45.3173 6.79252C45.0146 7.10137 45.2164 7.20432 46.1581 7.20432C47.7051 7.20432 48.9495 7.99362 49.6557 9.40063L50.1938 10.4645L48.9495 9.33199C47.4697 7.99362 46.1917 7.82204 46.5617 8.98882C46.6962 9.43494 46.8643 11.1508 46.898 12.8667L46.9989 15.9552L46.7298 13.2441C46.2254 8.92018 44.9474 6.89547 42.0551 5.90028C40.4409 5.31688 38.8266 5.41983 36.4052 6.20913ZM42.6941 6.86115C43.3331 7.20432 44.1739 7.82204 44.5438 8.23384C45.1492 8.92018 45.0819 8.92018 43.9048 8.09657C42.526 7.13569 40.6763 6.51798 39.331 6.51798L38.4903 6.5523L39.331 7.03274C40.1382 7.51318 40.1045 7.51318 38.6584 7.34159C36.7415 7.10137 34.3537 8.26816 33.6474 9.77811C33.3784 10.3272 33.1093 10.636 33.0421 10.3958C32.8739 9.91538 33.7147 8.16521 34.3873 7.61613C34.6563 7.37591 35.7662 6.89547 36.8424 6.51798C39.062 5.763 40.7772 5.86596 42.6941 6.86115ZM33.8492 17.7397C33.7483 18.0829 33.6811 17.877 33.6811 17.3279C33.6811 16.7445 33.7483 16.5043 33.8492 16.7102C33.9165 16.9504 33.9165 17.4308 33.8492 17.7397ZM36.237 22.7843C36.7078 23.3334 36.7078 23.402 36.3043 23.2991C35.7662 23.1275 34.4882 20.691 34.1519 19.2153C34.051 18.7349 34.3537 19.2153 34.8245 20.2449C35.2953 21.2744 35.9343 22.4412 36.237 22.7843ZM45.3846 27.9662C47.2679 28.3437 49.3194 29.4762 49.9584 30.4714L50.5301 31.3979L49.5548 30.4714C47.6379 28.6526 45.8218 28.378 44.9138 29.7507C44.3757 30.6086 44.3757 30.3341 44.9474 28.8928C45.2501 28.1721 44.4429 28.4467 43.9048 29.236C43.6022 29.6478 43.3667 29.8537 43.3667 29.6478C43.3667 29.4762 43.5685 29.0987 43.7703 28.8928C44.1066 28.5496 43.9721 28.2751 43.1986 27.5887L42.1897 26.7308L43.1986 27.2112C43.7703 27.4858 44.7456 27.829 45.3846 27.9662ZM36.3043 31.7068C36.3043 31.7754 35.0599 32.9079 33.5465 34.1776C30.2171 36.9573 30.0826 37.1289 29.4436 39.1193L28.9391 40.6636L29.04 38.8448C29.1745 36.6485 29.7126 35.9964 33.4456 33.4227C36.1697 31.5352 36.3043 31.4666 36.3043 31.7068ZM46.528 41.6245C47.0661 43.1687 48.0751 45.6396 48.7813 47.0809L50.0593 49.7576L48.8822 51.8853C48.2096 53.0864 47.3352 54.9738 46.898 56.1063C45.9563 58.6801 44.342 62.1805 44.1739 62.0089C44.1066 61.9402 44.2748 61.2539 44.5774 60.4989C45.0819 59.1605 45.0819 59.0233 44.5102 58.1997C43.8712 57.2731 43.7367 57.2731 41.3489 57.8222C40.6426 57.9938 40.7099 57.8908 41.7188 57.2388L42.9295 56.4495L41.9542 55.1111C41.1807 53.9786 41.0126 53.4296 41.0126 51.6794C41.0126 49.1399 41.5507 47.2868 43.5349 42.8599C44.3757 41.0068 45.0483 39.3252 45.0483 39.1193C45.0483 38.0555 45.6536 39.1193 46.528 41.6245ZM32.0331 46.9779C32.2013 47.2868 31.6296 46.8064 30.7888 45.9141C29.948 45.0219 29.2418 44.1296 29.2418 43.8894C29.2418 43.4433 31.5287 45.9827 32.0331 46.9779Z" fill="white"/>
<path d="M34.7909 26.7308C34.5891 26.9367 33.7147 27.1426 32.773 27.2113L31.0915 27.3142L32.8067 27.3828C33.9837 27.4172 34.6564 27.2799 34.959 26.9367C35.4299 26.3876 35.2953 26.2161 34.7909 26.7308Z" fill="white"/>
<path d="M28.8046 28.584C27.762 29.5792 27.2912 30.6087 26.8204 32.9766C26.7531 33.2854 25.8787 34.212 24.8698 35.0356C22.4147 37.0603 21.5403 39.1193 22.1121 41.35C22.4484 42.6883 22.4147 43.1344 21.843 44.6787C20.7332 47.63 20.7668 47.5957 18.9171 46.7377C18.0427 46.3259 16.1258 45.5366 14.7133 44.9876L12.1573 43.9924L10.8457 45.2621L9.53412 46.4975L12.3255 48.5566C13.8725 49.689 15.8231 51.096 16.6639 51.7137C17.5046 52.3315 19.018 53.0864 20.0269 53.4296C21.7085 53.9444 21.9439 53.9787 22.7847 53.4639C23.2891 53.1894 24.3653 51.9196 25.2061 50.6499L26.7195 48.385L27.2912 49.5174C28.132 51.096 29.2418 54.8023 29.2418 56.0034C29.2418 56.5525 29.948 59.2635 30.7888 62.0089C31.6296 64.72 32.2686 67.2251 32.1677 67.534C32.0668 67.8428 31.596 69.2498 31.0915 70.6225C30.6207 71.9952 30.2843 73.3336 30.3516 73.5395C30.4189 73.7797 30.7552 73.0934 31.0915 72.0638C31.4278 71.0343 31.9659 69.593 32.3358 68.8723L32.9748 67.6026L31.4614 62.6952C30.6207 60.0185 29.7799 56.8956 29.6117 55.7289C29.4436 54.5964 28.8046 52.4344 28.2329 50.9244C27.6275 49.4488 26.8204 47.3211 26.4168 46.1887C25.9796 45.0905 25.3742 44.0267 25.0043 43.8208C23.7263 43.1344 22.8519 42.0706 22.6501 40.9725C22.2802 38.9134 22.7847 37.781 25.2397 35.3444C27.0558 33.5256 27.5603 32.805 27.5603 32.05C27.5603 30.7116 28.6701 28.9614 29.9817 28.1378C30.6879 27.726 30.8897 27.4515 30.5198 27.4515C30.2171 27.4515 29.4436 27.9662 28.8046 28.584ZM20.4305 47.8359C20.9686 48.1104 21.6076 48.5909 21.8766 48.934C22.2802 49.4145 22.1457 49.4145 21.0022 48.8311C20.2624 48.4193 18.11 47.4584 16.193 46.6691C14.3097 45.8455 12.6618 45.0905 12.5945 44.9533C12.4264 44.6444 19.018 47.0809 20.4305 47.8359Z" fill="white"/>
<path d="M87.255 33.2511C84.6654 34.4865 82.7148 37.5064 82.7148 40.2518C82.7148 43.0658 84.7327 46.223 87.2213 47.3898C89.7773 48.5566 93.1404 48.0761 95.3264 46.2573C99.6311 42.6197 98.5549 35.3444 93.4094 33.1481C91.7279 32.4275 88.9029 32.4618 87.255 33.2511ZM92.7032 34.3492C94.9901 35.2072 96.6044 37.678 96.6044 40.3204C96.6044 46.1544 89.6091 48.8997 85.8425 44.5071C83.1184 41.3499 83.7237 36.9573 87.1877 34.8297C88.7347 33.9031 91.0216 33.6972 92.7032 34.3492Z" fill="white"/>
<path d="M87.4231 35.4131C85.4725 36.7858 84.9008 37.8839 84.9008 40.2861C84.9008 42.1392 85.0353 42.6197 85.8761 43.7178C86.9859 45.2278 88.5329 45.9828 90.4835 45.9828C95.8981 45.9828 98.1177 38.9134 93.7121 35.6533C91.9297 34.3492 89.1383 34.2463 87.4231 35.4131ZM92.3332 36.3396C95.9317 37.9869 95.4273 43.3403 91.5597 44.6444C89.9454 45.1592 87.6249 44.2669 86.7169 42.757C85.3716 40.5263 86.3133 37.1976 88.5329 36.2024C89.9791 35.5504 90.6853 35.5847 92.3332 36.3396Z" fill="white"/>
<path d="M88.0958 37.3005C86.0779 39.1536 86.2461 42.0019 88.3985 43.4776C89.7101 44.4041 90.7863 44.4728 92.1315 43.7521C93.5104 43.0315 94.1493 41.9333 94.1493 40.3204C94.1493 36.9916 90.4163 35.1728 88.0958 37.3005Z" fill="white"/>
<path d="M3.68234 34.5208C0.386516 35.9965 -0.925087 39.737 0.689193 43.1688C2.57252 47.0809 7.85256 47.7329 10.7112 44.4385C11.5856 43.409 12.4264 41.3843 12.4264 40.3204C12.4264 39.2223 11.5856 37.2319 10.6776 36.168C8.86149 34.0747 6.13739 33.4227 3.68234 34.5208ZM8.28976 35.6876C10.1395 36.5455 11.0811 38.0898 11.0811 40.3204C11.0811 42.6197 10.1395 44.1296 8.18887 44.9876C3.27877 47.2182 -1.19413 41.2127 2.23621 37.026C3.91775 35.0013 5.90197 34.5551 8.28976 35.6876Z" fill="white"/>
<path d="M3.64871 36.4769C2.23621 37.4378 1.66449 38.5359 1.66449 40.3204C1.66449 43.8894 5.22936 46.0514 8.35703 44.3355C9.66863 43.6149 10.7448 41.8304 10.7448 40.3891C10.7448 36.7171 6.60822 34.4179 3.64871 36.4769ZM7.81893 37.0946C8.86149 37.5751 9.73589 39.1193 9.73589 40.492C9.73589 41.2813 9.39958 41.9333 8.55881 42.7913C7.449 43.9237 7.24721 43.9924 5.83471 43.8208C4.05228 43.6149 3.14425 42.8942 2.67342 41.247C1.86627 38.1928 4.89305 35.7219 7.81893 37.0946Z" fill="white"/>
<path d="M4.45581 37.7466C2.33706 39.0507 2.77426 42.4138 5.12842 43.2031C7.2808 43.9237 9.06323 42.5167 9.06323 40.1145C9.06323 39.1193 8.82782 38.6389 8.02068 37.9525C6.77634 36.8887 5.90193 36.8201 4.45581 37.7466Z" fill="white"/>
<path d="M110.64 46H106.608L109.272 30.844L109.356 28H121.2L120.396 30.736H113.148L113.028 32.392L112.572 35.008H118.728L118.272 37.564H112.116L110.64 46ZM122.304 46H118.632L120.84 33.412L124.584 33.028L122.304 46ZM121.728 28H125.544L125.052 30.772H121.236L121.728 28ZM130.591 41.344C130.527 41.608 130.491 41.86 130.483 42.1C130.475 42.34 130.487 42.556 130.519 42.748C130.559 42.94 130.615 43.104 130.687 43.24C130.767 43.368 130.859 43.456 130.963 43.504C131.139 43.584 131.307 43.612 131.467 43.588C131.627 43.564 131.771 43.52 131.899 43.456C132.043 43.384 132.179 43.292 132.307 43.18L133.099 45.136C132.763 45.464 132.323 45.732 131.779 45.94C131.235 46.148 130.611 46.232 129.907 46.192C129.115 46.144 128.499 45.988 128.059 45.724C127.619 45.452 127.303 45.092 127.111 44.644C126.919 44.196 126.827 43.672 126.835 43.072C126.843 42.464 126.899 41.8 127.003 41.08L127.987 35.488H126.187L126.655 32.8H128.455L128.839 30.652L132.811 28.444L132.043 32.8H135.523L134.731 35.488H131.623L130.591 41.344ZM156.199 44.404C155.319 45.132 154.403 45.64 153.451 45.928C152.499 46.208 151.487 46.3 150.415 46.204C149.207 46.1 148.183 45.8 147.343 45.304C146.511 44.808 145.843 44.152 145.339 43.336C144.843 42.52 144.511 41.556 144.343 40.444C144.175 39.332 144.155 38.108 144.283 36.772C144.363 35.956 144.523 35.164 144.763 34.396C145.003 33.62 145.319 32.896 145.711 32.224C146.111 31.544 146.583 30.924 147.127 30.364C147.671 29.796 148.287 29.316 148.975 28.924C149.663 28.532 150.419 28.236 151.243 28.036C152.067 27.836 152.955 27.756 153.907 27.796C154.419 27.82 154.915 27.88 155.395 27.976C155.883 28.072 156.343 28.204 156.775 28.372C157.207 28.54 157.607 28.748 157.975 28.996C158.343 29.244 158.671 29.536 158.959 29.872L156.823 31.96C156.511 31.712 156.219 31.504 155.947 31.336C155.675 31.168 155.411 31.036 155.155 30.94C154.907 30.836 154.655 30.764 154.399 30.724C154.143 30.676 153.875 30.648 153.595 30.64C152.843 30.624 152.159 30.776 151.543 31.096C150.927 31.408 150.391 31.844 149.935 32.404C149.487 32.956 149.123 33.604 148.843 34.348C148.563 35.092 148.387 35.888 148.315 36.736C148.267 37.232 148.239 37.732 148.231 38.236C148.231 38.74 148.259 39.232 148.315 39.712C148.379 40.184 148.475 40.632 148.603 41.056C148.739 41.48 148.919 41.856 149.143 42.184C149.375 42.504 149.659 42.768 149.995 42.976C150.331 43.184 150.731 43.308 151.195 43.348C151.747 43.396 152.355 43.324 153.019 43.132C153.683 42.94 154.403 42.584 155.179 42.064L156.199 44.404ZM163.786 46.204C162.834 46.124 162.014 45.912 161.326 45.568C160.638 45.216 160.082 44.748 159.658 44.164C159.234 43.58 158.938 42.884 158.77 42.076C158.61 41.268 158.574 40.364 158.662 39.364C158.75 38.38 159.006 37.46 159.43 36.604C159.854 35.748 160.398 35.008 161.062 34.384C161.734 33.76 162.506 33.288 163.378 32.968C164.258 32.64 165.19 32.516 166.174 32.596C167.126 32.676 167.946 32.892 168.634 33.244C169.322 33.588 169.878 34.052 170.302 34.636C170.734 35.212 171.034 35.9 171.202 36.7C171.37 37.492 171.41 38.38 171.322 39.364C171.266 40.02 171.13 40.656 170.914 41.272C170.698 41.88 170.418 42.448 170.074 42.976C169.738 43.496 169.342 43.968 168.886 44.392C168.438 44.816 167.942 45.172 167.398 45.46C166.862 45.748 166.29 45.956 165.682 46.084C165.074 46.22 164.442 46.26 163.786 46.204ZM167.518 39.664C167.574 39.104 167.598 38.572 167.59 38.068C167.59 37.556 167.526 37.104 167.398 36.712C167.278 36.312 167.082 35.984 166.81 35.728C166.538 35.464 166.158 35.3 165.67 35.236C165.262 35.18 164.87 35.26 164.494 35.476C164.126 35.684 163.798 35.98 163.51 36.364C163.222 36.74 162.982 37.172 162.79 37.66C162.606 38.148 162.494 38.644 162.454 39.148C162.406 39.716 162.386 40.256 162.394 40.768C162.41 41.272 162.478 41.724 162.598 42.124C162.726 42.516 162.922 42.84 163.186 43.096C163.458 43.352 163.822 43.508 164.278 43.564C164.718 43.62 165.122 43.54 165.49 43.324C165.866 43.108 166.194 42.812 166.474 42.436C166.762 42.06 166.994 41.628 167.17 41.14C167.354 40.652 167.47 40.16 167.518 39.664ZM176.605 46H172.849L175.153 32.884L178.981 32.488L178.585 34.756L179.977 32.944C180.161 32.88 180.357 32.824 180.565 32.776C180.741 32.736 180.933 32.696 181.141 32.656C181.357 32.616 181.569 32.596 181.777 32.596C181.937 32.596 182.133 32.612 182.365 32.644C182.597 32.676 182.845 32.736 183.109 32.824C183.381 32.904 183.661 33.016 183.949 33.16C184.245 33.304 184.533 33.492 184.813 33.724C185.053 33.596 185.321 33.464 185.617 33.328C185.913 33.192 186.221 33.072 186.541 32.968C186.861 32.856 187.189 32.768 187.525 32.704C187.861 32.632 188.193 32.596 188.521 32.596C189.233 32.596 189.853 32.728 190.381 32.992C190.917 33.256 191.345 33.604 191.665 34.036C191.993 34.46 192.209 34.948 192.313 35.5C192.417 36.044 192.397 36.6 192.253 37.168L190.705 46H186.949L188.545 36.916C188.601 36.684 188.609 36.468 188.569 36.268C188.537 36.06 188.469 35.88 188.365 35.728C188.261 35.576 188.129 35.456 187.969 35.368C187.809 35.272 187.637 35.216 187.453 35.2C187.157 35.176 186.829 35.236 186.469 35.38C186.109 35.524 185.729 35.808 185.329 36.232C185.313 36.424 185.293 36.592 185.269 36.736C185.245 36.872 185.217 37.052 185.185 37.276L183.649 46H179.893L181.489 36.916C181.561 36.692 181.581 36.484 181.549 36.292C181.525 36.092 181.465 35.916 181.369 35.764C181.281 35.612 181.165 35.488 181.021 35.392C180.885 35.288 180.741 35.224 180.589 35.2C180.229 35.136 179.865 35.184 179.497 35.344C179.129 35.504 178.737 35.792 178.321 36.208L176.605 46ZM198.718 43.6H199.654C200.286 43.6 200.846 43.48 201.334 43.24C201.83 43 202.25 42.676 202.594 42.268C202.946 41.86 203.226 41.384 203.434 40.84C203.65 40.288 203.798 39.704 203.878 39.088C203.95 38.504 203.958 37.98 203.902 37.516C203.854 37.052 203.762 36.656 203.626 36.328C203.49 36 203.318 35.744 203.11 35.56C202.902 35.368 202.678 35.248 202.438 35.2C202.222 35.16 202.006 35.164 201.79 35.212C201.574 35.252 201.362 35.324 201.154 35.428C200.954 35.524 200.754 35.648 200.554 35.8C200.362 35.944 200.182 36.1 200.014 36.268L198.718 43.6ZM193.498 52L196.87 32.884L200.674 32.488L200.29 34.672L202.126 32.68C202.302 32.656 202.478 32.636 202.654 32.62C202.838 32.604 203.026 32.596 203.218 32.596C203.866 32.596 204.458 32.74 204.994 33.028C205.538 33.308 205.994 33.728 206.362 34.288C206.738 34.848 207.01 35.544 207.178 36.376C207.346 37.2 207.378 38.152 207.274 39.232C207.178 40.224 206.91 41.136 206.47 41.968C206.038 42.792 205.462 43.504 204.742 44.104C204.03 44.704 203.19 45.172 202.222 45.508C201.254 45.836 200.19 46 199.03 46H198.298L197.23 52H193.498ZM217.045 35.38C216.885 35.356 216.737 35.336 216.601 35.32C216.465 35.304 216.369 35.292 216.313 35.284C215.713 35.284 215.181 35.408 214.717 35.656C214.261 35.904 213.869 36.236 213.541 36.652C213.213 37.068 212.949 37.556 212.749 38.116C212.557 38.668 212.429 39.256 212.365 39.88C212.317 40.368 212.301 40.832 212.317 41.272C212.341 41.704 212.397 42.088 212.485 42.424C212.573 42.752 212.697 43.012 212.857 43.204C213.025 43.396 213.225 43.492 213.457 43.492C213.729 43.492 213.985 43.448 214.225 43.36C214.473 43.264 214.701 43.144 214.909 43C215.125 42.856 215.313 42.7 215.473 42.532C215.641 42.364 215.785 42.204 215.905 42.052L217.045 35.38ZM212.773 46.192C212.157 46.184 211.621 46.088 211.165 45.904C210.709 45.712 210.317 45.456 209.989 45.136C209.669 44.816 209.409 44.444 209.209 44.02C209.017 43.588 208.873 43.128 208.777 42.64C208.689 42.144 208.641 41.628 208.633 41.092C208.633 40.556 208.669 40.024 208.741 39.496C208.813 38.92 208.945 38.348 209.137 37.78C209.329 37.212 209.581 36.672 209.893 36.16C210.213 35.648 210.589 35.176 211.021 34.744C211.461 34.304 211.961 33.928 212.521 33.616C213.089 33.296 213.721 33.048 214.417 32.872C215.121 32.688 215.889 32.596 216.721 32.596C217.209 32.604 217.701 32.64 218.197 32.704C218.629 32.76 219.097 32.848 219.601 32.968C220.105 33.088 220.589 33.26 221.053 33.484L219.337 43.492L219.169 46H215.305L215.641 44.056L213.781 46.12C213.693 46.136 213.577 46.152 213.433 46.168C213.289 46.192 213.069 46.2 212.773 46.192ZM228.617 32.488L228.221 34.756L229.613 32.944C229.885 32.856 230.161 32.78 230.441 32.716C230.721 32.652 231.001 32.612 231.281 32.596C231.713 32.564 232.081 32.564 232.385 32.596C232.697 32.62 232.973 32.68 233.213 32.776C233.453 32.864 233.669 32.988 233.861 33.148C234.053 33.3 234.249 33.488 234.449 33.712C234.665 33.96 234.813 34.244 234.893 34.564C234.973 34.876 235.013 35.196 235.013 35.524C235.021 35.844 235.001 36.16 234.953 36.472C234.905 36.776 234.861 37.044 234.821 37.276L233.285 46H229.529L231.125 36.916C231.213 36.404 231.161 36.012 230.969 35.74C230.785 35.468 230.537 35.288 230.225 35.2C230.097 35.168 229.941 35.164 229.757 35.188C229.581 35.204 229.389 35.256 229.181 35.344C228.973 35.424 228.761 35.536 228.545 35.68C228.337 35.824 228.141 36 227.957 36.208L226.241 46H222.485L224.789 32.884L228.617 32.488ZM242.228 37.96L242.156 43.72L244.1 37.96L246.932 32.86L250.736 32.512L243.476 45.904C243.164 46.48 242.872 47.02 242.6 47.524C242.336 48.036 242.068 48.508 241.796 48.94C241.532 49.38 241.26 49.772 240.98 50.116C240.708 50.468 240.408 50.764 240.08 51.004C239.76 51.244 239.404 51.428 239.012 51.556C238.62 51.692 238.18 51.76 237.692 51.76C237.428 51.76 237.144 51.72 236.84 51.64C236.544 51.56 236.26 51.456 235.988 51.328C235.716 51.2 235.476 51.06 235.268 50.908C235.068 50.764 234.932 50.624 234.86 50.488L236.696 48.328C236.816 48.432 236.924 48.512 237.02 48.568C237.116 48.632 237.204 48.68 237.284 48.712C237.372 48.744 237.456 48.764 237.536 48.772C237.624 48.788 237.724 48.8 237.836 48.808C238.236 48.848 238.6 48.684 238.928 48.316C239.256 47.956 239.62 47.372 240.02 46.564L237.428 32.884L241.208 32.548L242.228 37.96Z" fill="white"/>
</svg>
