<svg width="23" height="28" viewBox="0 0 23 28" fill="none" xmlns="http://www.w3.org/2000/svg">
<rect x="2.72974" y="6.37837" width="16.973" height="20.6216" rx="5" fill="white" stroke="#333333" stroke-width="2"/>
<path fill-rule="evenodd" clip-rule="evenodd" d="M7.56751 11.946C7.97053 11.946 8.29724 12.2727 8.29724 12.6757V21.4324C8.29724 21.8355 7.97053 22.1622 7.56751 22.1622C7.16449 22.1622 6.83778 21.8355 6.83778 21.4324L6.83778 12.6757C6.83778 12.2727 7.16449 11.946 7.56751 11.946Z" fill="#333333"/>
<path fill-rule="evenodd" clip-rule="evenodd" d="M11.2161 11.946C11.6192 11.946 11.9459 12.2727 11.9459 12.6757V21.4324C11.9459 21.8355 11.6192 22.1622 11.2161 22.1622C10.8131 22.1622 10.4864 21.8355 10.4864 21.4324V12.6757C10.4864 12.2727 10.8131 11.946 11.2161 11.946Z" fill="#333333"/>
<path fill-rule="evenodd" clip-rule="evenodd" d="M14.8648 11.946C15.2678 11.946 15.5945 12.2727 15.5945 12.6757V21.4324C15.5945 21.8355 15.2678 22.1622 14.8648 22.1622C14.4618 22.1622 14.1351 21.8355 14.1351 21.4324V12.6757C14.1351 12.2727 14.4618 11.946 14.8648 11.946Z" fill="#333333"/>
<line x1="2.03259" y1="7.2973" x2="21.1948" y2="7.2973" stroke="#333333" stroke-width="2" stroke-linecap="round"/>
<path d="M2.49213 4.64865C0.726455 5.59526 1.00377 6.63287 1.03267 8.2973H21.4651C21.4559 6.02063 21.0689 5.21138 19.6408 4.64865H2.49213Z" fill="white" stroke="#333333" stroke-width="2"/>
<path d="M14.8649 4.64865H7.56887C7.54673 2.52186 7.80237 1.74719 8.66327 1H13.7705C14.712 1.79371 14.8595 2.70564 14.8649 4.64865Z" fill="white" stroke="#333333" stroke-width="2"/>
</svg>
